<svg xmlns="http://www.w3.org/2000/svg" width="380" height="43" viewBox="0 0 380 43" fill="none"><path d="M89.5798 18.361L89.5834 17.9234H89.5559V0.130127H82.384L82.3291 18.361H89.5798Z" fill="white"></path><path d="M82.3102 25.0503L82.3067 25.7898C82.2288 27.6584 81.603 29.3056 80.7664 30.5857C78.6552 33.815 75.1286 35.7342 71.5187 35.8002H70.7866V42.9901C71.3593 42.9901 71.8436 42.9665 72.3587 42.9512H72.5402V42.9439C72.7181 42.9367 72.8978 42.9295 73.0917 42.9241C78.3684 42.7568 83.0972 39.8151 86.3061 35.2488C88.149 32.7627 89.383 29.4168 89.5149 25.0503H82.3102Z" fill="white"></path><path d="M8.81576 12.4007C10.9287 9.16787 14.4519 7.25402 18.0653 7.18621H18.7982V0C18.2228 0 17.7386 0.0198889 17.2252 0.0388737H17.042V0.0424899C16.8676 0.0497222 16.6844 0.0569545 16.4923 0.0641868C11.2138 0.229626 6.48325 3.17499 3.27792 7.73768C1.37472 10.3052 0.112421 13.7884 0.0566532 18.3601V18.3638H7.22505V25.0482H0V25.0627H0.0239005V42.8524H7.19761V25.0627H18.5167V18.3601H7.2578V17.5809C7.2578 15.5558 7.9217 13.7712 8.81576 12.4007Z" fill="white"></path><path d="M7.24851 18.3572H0.0473633V25.0435H7.24851V18.3572Z" fill="#CB151D"></path><path d="M62.2204 12.4007C64.3298 9.16787 67.8565 7.25402 71.4699 7.18621H72.2028V0C71.6257 0 71.1432 0.0198889 70.628 0.0388737H70.4466V0.0424899C70.2687 0.0497222 70.089 0.0569545 69.8969 0.0641868C64.6166 0.229626 59.8878 3.17499 56.6807 7.73768C54.7776 10.3052 53.5188 13.7884 53.4604 18.3601V18.3638H60.5969V25.0482H53.4028V25.0627H53.4285V42.8524H60.6022V25.0627H71.9231V18.3601H60.6642V17.5809C60.6642 15.5558 61.3228 13.7712 62.2204 12.4007Z" fill="white"></path><path d="M60.5981 18.3572H53.4492V25.0435H60.5981V18.3572Z" fill="#10408F"></path><path d="M30.5072 18.297C30.6125 17.5747 30.7524 16.8705 30.9427 16.2015C32.1378 10.8568 36.7452 6.89619 42.2176 6.93958C42.3645 6.93958 43.6543 6.832 45.6973 6.88534H45.7248V0.170136C44.8714 0.0770199 43.996 0.0236816 43.0957 0.0236816C42.6894 0.0236816 42.2884 0.0345301 41.8901 0.0535149C32.2635 0.191833 24.4028 7.70078 23.5672 17.261C23.5291 17.5693 23.4999 17.8857 23.4672 18.2102C23.4636 18.2374 23.4601 18.2672 23.4565 18.297H30.5072Z" fill="white"></path><path d="M39.0268 18.2981V34.3692H39.0285V35.2986H38.7709C34.5866 35.2669 31.1467 31.5586 30.4925 26.7156C30.3978 26.194 30.3341 25.6253 30.2889 25.0341H23.271C23.2816 25.2041 23.2869 25.3858 23.302 25.5512C23.5649 35.3022 30.1561 42.0183 38.8559 42.7668V42.7723H38.9347C39.2224 42.7976 42.3224 43.0001 43.6865 43.0001C44.5593 43.0001 45.4029 42.9739 46.2155 42.926V42.7723H46.2332V18.2981H39.0268Z" fill="white"></path><path d="M30.3169 25.0203C30.3151 24.9607 30.3063 24.9037 30.3045 24.8404C30.239 24.0774 30.1974 23.2755 30.1974 22.4402C30.1974 21.1058 30.2859 19.8465 30.4479 18.7165C30.4674 18.57 30.4984 18.4326 30.5205 18.2861H23.4707C23.3149 19.5925 23.2246 21.0796 23.2246 22.6698C23.2246 23.4862 23.2538 24.2682 23.299 25.0203H30.3169Z" fill="#F49C17"></path><path d="M125.822 3.67732C125.386 2.70367 124.889 1.815 124.267 0.989616L125.884 0.35498C126.609 1.26535 127.023 1.96327 127.479 2.97941L125.822 3.67732ZM124.93 5.28561C124.723 5.60293 124.64 5.77198 124.413 6.55579C123.459 9.77145 121.988 12.6282 120.164 14.7238C118.259 16.945 115.979 18.5958 112.788 20.0775C112.208 19.0189 111.939 18.6591 111.027 17.8554C113.1 17.0083 114.259 16.3737 115.565 15.3792C118.529 13.1146 120.476 10.237 121.615 6.44911L115.378 6.53409C114.114 8.60795 112.499 10.4278 110.531 11.9728C109.909 11.1049 109.598 10.8292 108.521 10.1521C110.882 8.50218 112.375 6.80892 113.888 4.01634C114.529 2.80945 114.86 1.96327 114.944 1.20207L117.782 1.79421C117.616 2.00576 117.616 2.02655 117.367 2.55632C116.995 3.40159 116.849 3.71981 116.56 4.26947C116.787 4.24868 117.119 4.24868 117.554 4.22698L122.092 4.1637C122.631 4.1637 122.9 4.1429 123.128 4.10041C122.713 3.16925 122.278 2.42885 121.699 1.66674L123.356 1.0746C124.122 2.04734 124.475 2.66209 124.952 3.80479L123.853 4.20619L124.93 5.28561Z" fill="white"></path><path d="M141.629 5.58508H131.684V14.9591H141.629V5.58508ZM131.683 17.3719V18.8537H129.01C129.072 18.3447 129.093 17.8375 129.093 17.0329V4.90796C129.093 4.10336 129.072 3.70197 129.01 3.13062C129.507 3.17311 129.942 3.1939 130.771 3.1939H142.541C143.431 3.1939 143.805 3.17311 144.281 3.13062C144.239 3.68118 144.218 4.10336 144.218 4.88716V16.9904C144.218 17.7733 144.239 18.3447 144.301 18.832H141.629V17.3719H131.683Z" fill="white"></path><path d="M147.692 9.01294C148.604 9.14041 148.998 9.1612 151.049 9.1612H162.093C164.144 9.1612 164.538 9.14041 165.449 9.01294V11.9547C164.62 11.8489 164.392 11.8489 162.071 11.8489H151.069C148.748 11.8489 148.522 11.8489 147.692 11.9547V9.01294Z" fill="white"></path><path d="M184.788 5.64478C184.291 4.418 183.919 3.67669 183.296 2.72473L184.746 2.04761C185.431 3.02126 185.783 3.65589 186.28 4.88268L184.788 5.64478ZM182.509 2.97877C183.234 4.0157 183.524 4.54456 184.063 5.963L182.509 6.70341C182.136 5.62399 181.618 4.62954 180.975 3.67669L182.509 2.97877ZM180.334 2.74553C180.396 3.93072 180.727 5.75055 181.204 7.61287C182.198 11.4858 183.566 14.1943 185.825 16.7545C184.726 17.4741 184.374 17.7698 183.545 18.7009C182.074 16.882 180.997 14.9763 180.022 12.4802C179.132 10.2581 178.407 7.42303 178.054 4.7769C177.93 3.97321 177.868 3.57091 177.764 3.2536L180.334 2.74553ZM174.449 3.27529C174.366 3.52842 174.325 3.76167 174.18 4.90437C173.765 7.78193 173.248 10.1315 172.543 12.1421C171.61 14.7439 170.554 16.6487 168.875 18.6801C167.881 17.7065 167.549 17.4533 166.513 16.8603C167.757 15.5901 168.606 14.2992 169.476 12.3528C170.367 10.3847 171.092 7.76114 171.423 5.09512C171.548 4.22725 171.61 3.50763 171.61 3.04205V2.74553L174.449 3.27529Z" fill="white"></path><path d="M200.026 1.94215C199.922 2.55599 199.901 2.9149 199.881 3.95273L199.778 15.9927C201.227 15.2948 202.057 14.6593 202.948 13.5799C203.901 12.4372 204.502 11.2737 204.979 9.70785C205.704 10.6607 205.973 10.9346 206.926 11.6967C206.076 13.7914 204.999 15.3789 203.631 16.6274C202.451 17.6643 201.372 18.2989 199.218 19.1668C198.762 19.3359 198.596 19.4209 198.327 19.5483L197.001 18.1091C197.146 17.4953 197.168 17.0288 197.187 15.8653L197.291 3.93104V3.2964C197.291 2.76663 197.27 2.30105 197.208 1.89966L200.026 1.94215ZM194.535 2.19528C194.453 2.78833 194.453 2.78833 194.328 6.93516C194.183 11.0621 193.728 13.4533 192.65 15.6329C191.945 17.093 191.158 18.1724 189.79 19.5483C188.982 18.4897 188.671 18.1724 187.698 17.4953C188.713 16.6491 189.211 16.0777 189.832 15.0616C191.324 12.6279 191.801 9.89861 191.801 3.97353C191.801 2.80912 191.801 2.61927 191.717 2.04702L194.535 2.19528Z" fill="white"></path><path d="M223.512 4.33403C223.326 4.69384 223.265 4.8421 223.161 5.28689C222.124 9.32794 220.902 11.8674 218.913 14.1528C216.882 16.4807 214.666 18.0257 211.205 19.549C210.625 18.4054 210.356 18.004 209.382 17.0304C211.205 16.4382 212.386 15.8877 213.919 14.8715C217.151 12.7353 219.182 9.75104 220.197 5.64579H210.334C208.946 5.64579 208.47 5.66749 207.724 5.77326V3.02227C208.532 3.14883 208.967 3.17053 210.376 3.17053H219.887C221.047 3.17053 221.461 3.12804 222.103 2.95898L223.512 4.33403Z" fill="white"></path><path d="M233.577 9.17774C233.515 9.53664 233.495 9.7066 233.453 10.6378C233.433 11.0184 233.433 11.1883 233.412 11.3999C235.194 10.5953 236.312 9.66411 237.204 8.1616C237.204 8.14081 237.224 8.09832 237.266 8.03503C237.307 7.97175 237.328 7.95096 237.369 7.86598L237.349 7.84428C237.183 7.88677 236.954 7.88677 236.768 7.88677L228.563 7.92926C227.444 7.92926 227.051 7.95096 226.366 8.03503L226.346 5.62215C227.009 5.72883 227.589 5.77041 228.563 5.77041L237.369 5.74962C238.467 5.74962 238.654 5.72883 239.151 5.58057L240.311 7.01889C240.063 7.35791 240.063 7.35791 239.69 8.1616C239.068 9.47336 238.177 10.6803 237.183 11.5897C236.541 12.2036 236.023 12.5634 235.007 13.1555C234.385 12.3301 234.138 12.077 233.412 11.5047C233.329 13.2197 233.039 14.4682 232.48 15.5892C231.567 17.5365 230.076 18.7425 227.341 19.8427C226.865 18.8275 226.636 18.5092 225.849 17.6838C228.108 17.0067 229.517 16.0132 230.282 14.5315C230.822 13.4945 231.07 11.992 231.07 9.96064C231.07 9.62162 231.07 9.51585 231.029 9.17774H233.577Z" fill="white"></path><path d="M244.67 2.91748C247.135 4.48328 248.42 5.45693 250.016 7.00193L248.233 9.30813C246.576 7.5091 244.876 6.11236 242.95 5.01214L244.67 2.91748ZM242.908 16.0586C244.69 15.9528 247.157 15.339 249.041 14.4928C251.631 13.3501 253.558 11.7201 255.196 9.30813C256.107 7.95388 256.687 6.78948 257.309 5.07633C258.116 6.07077 258.448 6.38809 259.505 7.15019C257.745 11.0222 255.776 13.5192 252.937 15.4448C250.823 16.884 248.254 17.9209 245.043 18.6188C244.213 18.7888 244.151 18.8096 243.675 18.9786L242.908 16.0586Z" fill="white"></path><path d="M274.655 5.24373C274.054 4.14261 273.474 3.27564 272.708 2.42946L274.199 1.60407C275.028 2.47195 275.567 3.21236 276.188 4.33337L274.655 5.24373ZM271.982 2.81006C272.832 3.71952 273.288 4.37586 273.972 5.66682L272.417 6.55549C271.796 5.39109 271.174 4.48163 270.428 3.65624L271.982 2.81006ZM263.259 19.5483C263.363 18.8712 263.384 18.299 263.384 17.178V3.61375C263.384 2.57772 263.342 2.02626 263.259 1.45581H266.098C266.015 2.09045 266.015 2.36527 266.015 3.67794V7.61322C268.854 8.62936 272.107 10.1735 275.422 12.0792L273.972 14.5752C272.252 13.3692 270.097 12.1623 266.636 10.5342C266.16 10.3009 266.098 10.2792 265.932 10.1735C265.994 10.7665 266.015 11.0205 266.015 11.6127V17.1996C266.015 18.299 266.036 18.8504 266.098 19.5483H263.259Z" fill="white"></path><path d="M282.228 16.6316H291.863V11.2146H282.228V16.6316ZM282.228 8.99242H291.863V4.08258H282.228V8.99242ZM279.887 3.99851C279.887 3.17312 279.845 2.43271 279.783 1.73389C280.446 1.81887 281.13 1.83966 282.083 1.83966H292.112C293.085 1.83966 293.727 1.81887 294.349 1.73389C294.267 2.53848 294.246 3.15233 294.246 3.89273V17.5627C294.246 18.6629 294.288 19.3609 294.37 20.123H291.863V18.8537H282.228V20.123H279.762C279.845 19.4033 279.887 18.5572 279.887 17.5627V3.99851Z" fill="white"></path><path d="M309.812 13.9636C310.765 13.9636 311.138 13.9428 311.636 13.8787C310.019 12.2279 309.107 10.9369 307.616 8.2709C307.74 9.13878 307.802 9.98586 307.802 10.6205V13.9636H309.812ZM305.481 10.6413C305.481 9.98586 305.544 9.13878 305.647 8.2709C304.549 10.5563 303.554 12.038 301.876 13.8787C302.352 13.9428 302.767 13.9636 303.72 13.9636H305.481V10.6413ZM300.156 6.59933C299.244 6.59933 298.541 6.64182 297.691 6.7268V4.14486C298.499 4.25063 299.182 4.29312 300.156 4.29312H305.481V2.79061C305.481 1.96612 305.44 1.43635 305.358 0.82251H307.948C307.843 1.41466 307.802 1.98691 307.802 2.76891V4.29312H313.417C314.453 4.29312 315.22 4.25063 315.924 4.14486V6.7268C315.013 6.64182 314.391 6.59933 313.417 6.59933H308.983C309.957 8.39837 310.931 9.79511 312.091 11.0436C313.5 12.5461 314.971 13.7096 316.609 14.5983C315.966 15.3812 315.614 15.9525 315.199 16.9054C313.873 15.9742 312.982 15.2329 311.718 13.9636V16.3756C311.076 16.2906 310.495 16.2481 309.646 16.2481H307.802V17.6874C307.802 18.6827 307.843 19.5714 307.948 20.3109H305.336C305.44 19.5289 305.481 18.6827 305.481 17.6874V16.2481H303.845C302.995 16.2481 302.394 16.2906 301.773 16.3756V13.9844C300.592 15.2546 299.722 16.0167 298.416 16.947C298.002 15.995 297.691 15.5086 297.007 14.7257C300.115 12.7576 302.622 9.92168 304.218 6.59933H300.156Z" fill="white"></path><path d="M325.925 13.8967C325.532 14.3831 325.366 14.5738 324.869 15.1235C325.738 15.3142 325.738 15.3142 328.371 15.9706C329.323 15.2717 329.945 14.6163 330.339 13.8967H325.925ZM335.021 20.4347C332.535 19.3137 331.146 18.764 328.889 18.0444C326.713 19.2929 323.936 19.9908 319.772 20.3714C319.502 19.5469 319.274 19.0597 318.736 18.2135H319.295C321.429 18.2135 324.04 17.8112 325.884 17.1766C324.185 16.7535 323.315 16.5419 321.326 16.1613C322.237 15.2717 322.485 14.9969 323.356 13.8967H320.953C320.041 13.8967 319.315 13.9392 318.674 14.0242V11.8228C319.15 11.9078 319.647 11.9503 320.394 11.9503H324.806C325.324 11.1665 325.532 10.8067 325.677 10.3628L326.526 10.4686C326.588 10.0672 326.588 9.85474 326.588 9.22011V8.64875C326.588 8.30974 326.609 8.0774 326.63 7.76008C325.014 9.39007 322.755 10.6168 319.378 11.6954C319.108 10.9767 318.736 10.3411 318.238 9.72818C320.849 9.13513 323.128 8.20397 324.828 6.97718H321.159C320.103 6.97718 319.315 7.01967 318.674 7.10375V4.90332C319.357 4.9883 320.227 5.02988 321.201 5.02988H326.588V3.69733C324.806 3.8031 323.915 3.82389 320.725 3.82389C320.414 2.89273 320.269 2.57632 319.875 1.8775L321.905 1.89919C326.505 1.89919 331.52 1.41101 333.944 0.733887L335.436 2.78696C335.062 2.82945 335.062 2.82945 334.297 2.95602C332.742 3.16847 332.514 3.18926 328.784 3.52737V5.02988H334.482C335.519 5.02988 336.307 4.9883 336.949 4.90332V7.10375C336.265 7.01967 335.602 6.97718 334.524 6.97718H330.711C331.437 7.50605 332.555 8.11899 333.509 8.4797C334.669 8.94437 336.307 9.39007 337.508 9.57991C337.011 10.257 336.741 10.7651 336.41 11.6538C334.628 11.1882 333.447 10.7443 331.955 9.93972C330.442 9.13513 329.8 8.69124 328.722 7.71759C328.764 8.05661 328.764 8.18317 328.764 8.60626V9.19931C328.764 9.91893 328.784 10.2778 328.868 10.7443H328.163C327.956 11.0182 327.811 11.209 327.313 11.9503H335.27C336.016 11.9503 336.493 11.9078 336.99 11.8228V14.0242C336.368 13.9392 335.644 13.8967 334.731 13.8967H332.909C332.328 14.9752 331.747 15.7373 330.815 16.6477C333.322 17.4098 334.731 17.917 336.658 18.7216L335.021 20.4347Z" fill="white"></path><path d="M344.098 4.37617H353.443V3.21267H344.098V4.37617ZM343.249 14.9354H354.271V13.8993H343.249V14.9354ZM343.249 12.3109H354.271V11.3382H343.249V12.3109ZM343.249 9.75069H354.271V8.77794H343.249V9.75069ZM355.743 4.56692C355.743 5.20156 355.764 5.66714 355.806 6.15351C355.183 6.11102 354.479 6.09023 353.567 6.09023H344.016C343.083 6.09023 342.358 6.11102 341.736 6.15351C341.778 5.62465 341.819 5.13828 341.819 4.56692V2.93694C341.819 2.3023 341.798 1.9434 341.716 1.30786C342.441 1.39194 342.959 1.41363 344.077 1.41363H353.484C354.603 1.41363 355.101 1.39194 355.826 1.30786C355.764 1.87921 355.743 2.25982 355.743 2.93694V4.56692ZM343.249 16.6919C342.212 16.6919 341.611 16.7127 340.948 16.7769C340.99 16.2471 341.031 15.6125 341.031 14.5548V9.20103C341.031 8.12161 341.011 7.57105 340.948 6.93641C341.57 6.99969 342.274 7.02139 343.249 7.02139H354.271C355.288 7.02139 355.868 6.99969 356.592 6.93641C356.531 7.50776 356.509 8.01583 356.509 9.20103V14.5548C356.509 15.3801 356.531 15.8457 356.531 15.9298C356.531 16.3321 356.531 16.3954 356.592 16.7769C355.951 16.7127 355.308 16.6919 354.271 16.6919H352.614C354.375 17.6439 356.137 18.1736 358.582 18.49C357.835 19.4429 357.587 19.8235 357.297 20.5639C354.085 19.9085 352.78 19.3796 350.377 17.7288L351.495 16.6919H345.859L347.165 17.8129C345.714 18.7233 344.781 19.1889 343.394 19.696C342.565 19.9926 341.923 20.1625 340.223 20.5431C339.872 19.6752 339.54 19.1247 338.959 18.4475C341.923 17.9829 343.352 17.5598 344.844 16.6919H343.249Z" fill="white"></path><path d="M372.972 7.08463C373.304 7.08463 373.49 7.08463 373.884 7.06384C371.978 5.73038 370.796 4.63016 369.553 2.95859C368.455 4.46111 367.17 5.68789 365.244 7.06384C365.596 7.08463 365.72 7.08463 366.093 7.08463H372.972ZM363.151 13.2005C362.095 13.2005 361.39 13.2429 360.707 13.327V10.8717C361.39 10.9566 362.177 10.9991 363.151 10.9991H376.06C377.075 10.9991 377.8 10.9566 378.484 10.8717V13.327C377.8 13.2429 377.095 13.2005 376.06 13.2005H368.932C368.289 14.7455 367.647 15.993 366.777 17.3057C370.445 17.0933 370.445 17.0933 373.346 16.7768C372.683 16.0355 372.329 15.654 371.17 14.4272L373.221 13.497C375.437 15.7815 376.329 16.8401 378.007 19.1463L376.018 20.4789C375.335 19.4429 375.128 19.1463 374.774 18.6383C373.055 18.8715 371.812 19.0189 371.045 19.1038C368.994 19.2946 364.891 19.6752 364.063 19.7385C362.902 19.8235 361.866 19.9292 361.39 20.035L361.058 17.454C361.618 17.4965 361.97 17.5172 362.259 17.5172C362.404 17.5172 363.027 17.4965 364.084 17.4323C365.098 15.8665 365.741 14.6388 366.3 13.2005H363.151ZM364.29 7.74096C363.006 8.58714 362.426 8.90446 360.975 9.55989C360.623 8.71461 360.292 8.12066 359.774 7.40285C362.011 6.49248 363.4 5.70959 364.974 4.46111C366.342 3.38078 367.399 2.25977 368.248 0.905518H370.714C371.812 2.47131 372.641 3.29761 374.215 4.41862C375.977 5.68789 377.655 6.57656 379.54 7.27538C378.96 8.18485 378.691 8.7779 378.401 9.64487C377.095 9.07352 376.308 8.65043 374.858 7.71927V9.37004C374.318 9.30676 373.78 9.28597 372.992 9.28597H366.073C365.471 9.28597 364.849 9.30676 364.29 9.37004V7.74096Z" fill="white"></path><path d="M109.401 27.5713H115.363V28.7954H110.847V32.5534H115.019V33.7612H110.847V38.8772H109.401V27.5713Z" fill="white"></path><path d="M118.229 33.2897C118.229 32.3332 118.212 31.5115 118.163 30.7566H119.427L119.494 32.3667H119.542C119.904 31.2764 120.791 30.5894 121.76 30.5894C121.907 30.5894 122.023 30.6056 122.154 30.6228V32.015C122.007 31.9816 121.859 31.9816 121.661 31.9816C120.643 31.9816 119.92 32.7527 119.723 33.8602C119.69 34.0618 119.674 34.3131 119.674 34.5481V38.8758H118.229V33.2897Z" fill="white"></path><path d="M124.973 30.7574H126.418V38.8756H124.973V30.7574ZM126.582 28.4756C126.582 28.9791 126.237 29.3814 125.662 29.3814C125.136 29.3814 124.792 28.9791 124.792 28.4756C124.792 27.9729 125.153 27.5535 125.695 27.5535C126.221 27.5535 126.582 27.9558 126.582 28.4756Z" fill="white"></path><path d="M135.184 34.0283C135.201 33.1053 134.806 31.6462 133.18 31.6462C131.702 31.6462 131.078 33.005 130.963 34.0283H135.184ZM130.947 35.0851C130.979 37.0813 132.212 37.903 133.673 37.903C134.708 37.903 135.349 37.7186 135.874 37.4836L136.137 38.5404C135.628 38.7754 134.741 39.0602 133.476 39.0602C131.029 39.0602 129.567 37.3995 129.567 34.9513C129.567 32.5023 130.979 30.5894 133.295 30.5894C135.906 30.5894 136.58 32.9046 136.58 34.3972C136.58 34.6991 136.564 34.917 136.531 35.0851H130.947Z" fill="white"></path><path d="M139.691 32.9543C139.691 32.0991 139.675 31.4283 139.626 30.7566H140.907L140.989 32.0991H141.022C141.416 31.3442 142.336 30.5894 143.65 30.5894C144.75 30.5894 146.459 31.2602 146.459 34.0446V38.8758H145.013V34.1956C145.013 32.8874 144.537 31.7972 143.174 31.7972C142.237 31.7972 141.498 32.4842 141.235 33.3069C141.17 33.4913 141.137 33.7426 141.137 33.994V38.8758H139.691V32.9543Z" fill="white"></path><path d="M155.587 34.0636C155.587 33.8792 155.57 33.6278 155.522 33.4425C155.308 32.5204 154.52 31.7483 153.435 31.7483C151.941 31.7483 151.054 33.0908 151.054 34.8691C151.054 36.5126 151.859 37.8714 153.403 37.8714C154.372 37.8714 155.259 37.2006 155.522 36.1103C155.57 35.9087 155.587 35.7071 155.587 35.473V34.0636ZM157.016 26.9678V36.7811C157.016 37.5025 157.049 38.3243 157.082 38.8776H155.801L155.735 37.4691H155.686C155.259 38.3749 154.306 39.062 153.009 39.062C151.087 39.062 149.593 37.4013 149.593 34.936C149.576 32.2356 151.235 30.5912 153.156 30.5912C154.389 30.5912 155.193 31.1788 155.555 31.8161H155.587V26.9678H157.016Z" fill="white"></path><path d="M160.415 37.3832C160.858 37.6517 161.613 37.9537 162.336 37.9537C163.371 37.9537 163.863 37.4338 163.863 36.7459C163.863 36.0416 163.453 35.6719 162.402 35.2696C160.956 34.7326 160.284 33.9442 160.284 32.9715C160.284 31.6634 161.334 30.5894 163.026 30.5894C163.831 30.5894 164.537 30.8081 164.965 31.0929L164.619 32.166C164.307 31.9653 163.732 31.6796 162.993 31.6796C162.139 31.6796 161.68 32.1832 161.68 32.7871C161.68 33.4579 162.139 33.7598 163.174 34.1793C164.537 34.6991 165.26 35.4043 165.26 36.6112C165.26 38.054 164.159 39.0602 162.304 39.0602C161.433 39.0602 160.628 38.8261 160.069 38.4907L160.415 37.3832Z" fill="white"></path><path d="M174.481 34.8329C174.481 36.6112 175.466 37.9527 176.879 37.9527C178.259 37.9527 179.294 36.6274 179.294 34.7995C179.294 33.4235 178.62 31.6959 176.912 31.6959C175.22 31.6959 174.481 33.3069 174.481 34.8329ZM180.772 34.7488C180.772 37.7521 178.719 39.0602 176.814 39.0602C174.679 39.0602 173.003 37.4501 173.003 34.8835C173.003 32.1823 174.76 30.5894 176.945 30.5894C179.228 30.5894 180.772 32.2835 180.772 34.7488Z" fill="white"></path><path d="M184.023 38.8726V31.878H182.923V30.7543H184.023V30.3683C184.023 29.2274 184.286 28.1877 184.943 27.5332C185.485 26.9962 186.208 26.7783 186.882 26.7783C187.407 26.7783 187.834 26.8958 188.112 27.0134L187.915 28.1543C187.702 28.053 187.423 27.9689 186.996 27.9689C185.765 27.9689 185.452 29.0601 185.452 30.3176V30.7543H187.374V31.878H185.452V38.8726H184.023Z" fill="white"></path><path d="M196.832 28.8081V30.7536H198.901V31.8782H196.832V36.2556C196.832 37.2627 197.111 37.8322 197.916 37.8322C198.31 37.8322 198.54 37.7988 198.754 37.7319L198.819 38.8556C198.54 38.9568 198.097 39.0572 197.538 39.0572C196.865 39.0572 196.323 38.8221 195.978 38.4361C195.584 37.9832 195.419 37.2627 195.419 36.3062V31.8782H194.188V30.7536H195.419V29.2439L196.832 28.8081Z" fill="white"></path><path d="M201.79 26.9678H203.236V32.0503H203.268C203.498 31.6308 203.86 31.2448 204.303 30.9935C204.73 30.7421 205.239 30.5912 205.781 30.5912C206.849 30.5912 208.557 31.262 208.557 34.0464V38.8776H207.112V34.2146C207.112 32.9055 206.636 31.8152 205.272 31.8152C204.336 31.8152 203.614 32.486 203.334 33.2753C203.252 33.4931 203.236 33.711 203.236 33.9795V38.8776H201.79V26.9678Z" fill="white"></path><path d="M217.328 34.0283C217.345 33.1053 216.95 31.6462 215.324 31.6462C213.846 31.6462 213.221 33.005 213.106 34.0283H217.328ZM213.09 35.0851C213.123 37.0813 214.355 37.903 215.817 37.903C216.852 37.903 217.493 37.7186 218.018 37.4836L218.28 38.5404C217.771 38.7754 216.884 39.0602 215.62 39.0602C213.173 39.0602 211.71 37.3995 211.71 34.9513C211.71 32.5023 213.123 30.5894 215.439 30.5894C218.05 30.5894 218.724 32.9046 218.724 34.3972C218.724 34.6991 218.708 34.917 218.674 35.0851H213.09Z" fill="white"></path><path d="M235.412 38.3728C234.771 38.6241 233.49 38.9939 231.996 38.9939C230.32 38.9939 228.94 38.5572 227.857 37.5004C226.904 36.5611 226.313 35.0513 226.313 33.2903C226.313 29.9182 228.596 27.4529 232.307 27.4529C233.588 27.4529 234.607 27.7377 235.083 27.9727L234.722 29.1633C234.131 28.8785 233.392 28.677 232.275 28.677C229.581 28.677 227.824 30.3883 227.824 33.2234C227.824 36.0919 229.499 37.7861 232.094 37.7861C233.031 37.7861 233.671 37.6514 233.999 37.4841V34.112H231.766V32.9377H235.412V38.3728Z" fill="white"></path><path d="M240.46 26.9678H239.014V38.8776H240.46V26.9678Z" fill="white"></path><path d="M245.128 34.8329C245.128 36.6112 246.114 37.9527 247.526 37.9527C248.907 37.9527 249.941 36.6274 249.941 34.7995C249.941 33.4235 249.268 31.6959 247.559 31.6959C245.868 31.6959 245.128 33.3069 245.128 34.8329ZM251.419 34.7488C251.419 37.7521 249.366 39.0602 247.461 39.0602C245.326 39.0602 243.65 37.4501 243.65 34.8835C243.65 32.1823 245.407 30.5894 247.592 30.5894C249.875 30.5894 251.419 32.2835 251.419 34.7488Z" fill="white"></path><path d="M256.038 35.623C256.038 35.8075 256.055 35.9919 256.104 36.16C256.367 37.1834 257.221 37.8877 258.272 37.8877C259.799 37.8877 260.686 36.6292 260.686 34.7678C260.686 33.1406 259.865 31.7483 258.305 31.7483C257.336 31.7483 256.416 32.4526 256.12 33.56C256.071 33.7444 256.038 33.946 256.038 34.1802V35.623ZM254.609 26.9678H256.038V32.0666H256.071C256.58 31.1607 257.5 30.5912 258.781 30.5912C260.769 30.5912 262.148 32.2682 262.148 34.7172C262.148 37.6192 260.341 39.062 258.567 39.062C257.418 39.062 256.498 38.6091 255.89 37.5523H255.858L255.775 38.8776H254.544C254.577 38.3234 254.609 37.5016 254.609 36.7802V26.9678Z" fill="white"></path><path d="M269.555 34.7326C267.979 34.6991 266.188 34.9839 266.188 36.5605C266.188 37.5342 266.812 37.9699 267.535 37.9699C268.586 37.9699 269.26 37.2991 269.49 36.6112C269.538 36.4439 269.555 36.2758 269.555 36.142V34.7326ZM270.951 36.9303C270.951 37.6345 270.984 38.3225 271.066 38.8758H269.769L269.654 37.8524H269.605C269.161 38.4898 268.307 39.0602 267.174 39.0602C265.564 39.0602 264.742 37.903 264.742 36.7287C264.742 34.766 266.451 33.6929 269.523 33.7092V33.542C269.523 32.8874 269.342 31.6625 267.716 31.6796C266.96 31.6796 266.188 31.8975 265.629 32.2835L265.301 31.2936C265.959 30.8741 266.927 30.5894 267.929 30.5894C270.36 30.5894 270.951 32.2835 270.951 33.8936V36.9303Z" fill="white"></path><path d="M276.016 26.9678H274.57V38.8776H276.016V26.9678Z" fill="white"></path><path d="M284.908 27.5713H290.87V28.7954H286.353V32.5534H290.525V33.7612H286.353V38.8772H284.908V27.5713Z" fill="white"></path><path d="M300.416 36.6431C300.416 37.4984 300.433 38.237 300.482 38.8743H299.201L299.119 37.549H299.086C298.725 38.2035 297.87 39.0587 296.458 39.0587C295.21 39.0587 293.715 38.3373 293.715 35.5022V30.7551H295.16V35.2337C295.16 36.7769 295.637 37.8338 296.934 37.8338C297.903 37.8338 298.577 37.1467 298.84 36.475C298.922 36.2743 298.971 36.0058 298.971 35.7201V30.7551H300.416V36.6431Z" fill="white"></path><path d="M304.072 32.9543C304.072 32.0991 304.055 31.4283 304.007 30.7566H305.288L305.37 32.0991H305.403C305.796 31.3442 306.716 30.5894 308.031 30.5894C309.131 30.5894 310.84 31.2602 310.84 34.0446V38.8758H309.394V34.1956C309.394 32.8874 308.918 31.7972 307.554 31.7972C306.618 31.7972 305.879 32.4842 305.616 33.3069C305.55 33.4913 305.518 33.7426 305.518 33.994V38.8758H304.072V32.9543Z" fill="white"></path><path d="M319.968 34.0636C319.968 33.8792 319.951 33.6278 319.902 33.4425C319.689 32.5204 318.9 31.7483 317.816 31.7483C316.322 31.7483 315.435 33.0908 315.435 34.8691C315.435 36.5126 316.239 37.8714 317.783 37.8714C318.753 37.8714 319.64 37.2006 319.902 36.1103C319.951 35.9087 319.968 35.7071 319.968 35.473V34.0636ZM321.397 26.9678V36.7811C321.397 37.5025 321.429 38.3243 321.462 38.8776H320.181L320.116 37.4691H320.066C319.64 38.3749 318.687 39.062 317.389 39.062C315.467 39.062 313.973 37.4013 313.973 34.936C313.956 32.2356 315.615 30.5912 317.537 30.5912C318.769 30.5912 319.574 31.1788 319.935 31.8161H319.968V26.9678H321.397Z" fill="white"></path><path d="M324.218 40.9556C324.579 39.9494 325.023 38.1539 325.203 36.9299L326.813 36.7617C326.419 38.1874 325.696 40.0497 325.236 40.838L324.218 40.9556Z" fill="white"></path><path d="M337.247 27.5713H338.692V35.1363C338.692 38.1386 337.247 39.0616 335.342 39.0616C334.799 39.0616 334.159 38.9441 333.814 38.7931L334.011 37.6025C334.307 37.72 334.733 37.8204 335.226 37.8204C336.507 37.8204 337.247 37.2337 337.247 35.0188V27.5713Z" fill="white"></path><path d="M346.507 34.7326C344.931 34.6991 343.14 34.9839 343.14 36.5605C343.14 37.5342 343.764 37.9699 344.487 37.9699C345.538 37.9699 346.212 37.2991 346.442 36.6112C346.491 36.4439 346.507 36.2758 346.507 36.142V34.7326ZM347.903 36.9303C347.903 37.6345 347.936 38.3225 348.019 38.8758H346.721L346.606 37.8524H346.557C346.114 38.4898 345.259 39.0602 344.126 39.0602C342.516 39.0602 341.695 37.903 341.695 36.7287C341.695 34.766 343.403 33.6929 346.475 33.7092V33.542C346.475 32.8874 346.294 31.6625 344.668 31.6796C343.912 31.6796 343.14 31.8975 342.582 32.2835L342.253 31.2936C342.911 30.8741 343.879 30.5894 344.881 30.5894C347.312 30.5894 347.903 32.2835 347.903 33.8936V36.9303Z" fill="white"></path><path d="M352.924 35.5715C352.924 35.7894 352.94 35.991 352.989 36.1754C353.252 37.1988 354.122 37.903 355.157 37.903C356.685 37.903 357.572 36.6283 357.572 34.766C357.572 33.1559 356.734 31.7637 355.207 31.7637C354.221 31.7637 353.285 32.4679 353.022 33.5754C352.973 33.7598 352.924 33.9777 352.924 34.1621V35.5715ZM351.495 33.4072C351.495 32.3676 351.462 31.5287 351.429 30.7575H352.71L352.793 32.1497H352.825C353.4 31.1598 354.352 30.5894 355.65 30.5894C357.589 30.5894 359.033 32.2501 359.033 34.6991C359.033 37.6183 357.276 39.0602 355.404 39.0602C354.352 39.0602 353.433 38.591 352.956 37.7855H352.924V42.1972H351.495V33.4072Z" fill="white"></path><path d="M366.441 34.7326C364.864 34.6991 363.073 34.9839 363.073 36.5605C363.073 37.5342 363.697 37.9699 364.421 37.9699C365.471 37.9699 366.145 37.2991 366.375 36.6112C366.424 36.4439 366.441 36.2758 366.441 36.142V34.7326ZM367.837 36.9303C367.837 37.6345 367.869 38.3225 367.952 38.8758H366.654L366.539 37.8524H366.49C366.047 38.4898 365.192 39.0602 364.059 39.0602C362.449 39.0602 361.628 37.903 361.628 36.7287C361.628 34.766 363.336 33.6929 366.408 33.7092V33.542C366.408 32.8874 366.227 31.6625 364.601 31.6796C363.845 31.6796 363.073 31.8975 362.515 32.2835L362.186 31.2936C362.844 30.8741 363.812 30.5894 364.814 30.5894C367.245 30.5894 367.837 32.2835 367.837 33.8936V36.9303Z" fill="white"></path><path d="M371.428 32.9543C371.428 32.0991 371.411 31.4283 371.363 30.7566H372.643L372.726 32.0991H372.759C373.152 31.3442 374.072 30.5894 375.387 30.5894C376.487 30.5894 378.195 31.2602 378.195 34.0446V38.8758H376.75V34.1956C376.75 32.8874 376.274 31.7972 374.91 31.7972C373.974 31.7972 373.235 32.4842 372.972 33.3069C372.906 33.4913 372.874 33.7426 372.874 33.994V38.8758H371.428V32.9543Z" fill="white"></path></svg>